<?xml version="1.0" standalone="no"?>
<!DOCTYPE svg PUBLIC "-//W3C//DTD SVG 20010904//EN"
 "http://www.w3.org/TR/2001/REC-SVG-20010904/DTD/svg10.dtd">
<svg version="1.0" xmlns="http://www.w3.org/2000/svg"
 width="2530.000000pt" height="605.000000pt" viewBox="0 0 2530.000000 605.000000"
 preserveAspectRatio="xMidYMid meet">

<g transform="translate(0.000000,605.000000) scale(0.100000,-0.100000)"
fill="#000000" stroke="none">
<path d="M10 4120 l0 -1920 798 -2 c906 -3 1028 -2 1202 13 149 12 166 16 340
81 586 217 990 573 1200 1056 166 383 193 776 85 1207 -183 730 -693 1229
-1451 1421 -256 65 -247 64 -1258 64 l-916 0 0 -1920z m1208 1339 c203 -164
433 -276 675 -328 53 -12 100 -21 104 -21 5 1 -14 13 -42 27 -127 66 -224 185
-299 367 -9 22 -14 41 -12 44 3 2 38 -25 78 -60 223 -194 424 -315 628 -378
297 -92 522 -275 665 -542 l42 -79 109 -48 c198 -87 280 -145 321 -229 24 -48
28 -69 28 -137 -1 -44 -12 -138 -25 -209 -22 -121 -27 -135 -78 -215 -189
-301 -434 -539 -666 -647 -325 -150 -683 -86 -935 167 l-64 64 50 -96 c27 -53
103 -179 168 -280 117 -183 174 -278 175 -291 0 -4 -29 6 -63 23 -75 34 -179
59 -257 59 -50 0 -57 3 -72 27 -9 16 -75 112 -146 216 -190 274 -237 394 -234
597 1 63 6 131 11 150 l9 35 1 -35 c2 -42 34 -116 64 -148 49 -53 140 -77 188
-52 37 20 66 113 54 171 -6 27 -8 28 -28 14 -33 -23 -54 -18 -81 18 -92 120
-88 327 10 517 50 97 57 104 50 49 -14 -124 44 -277 148 -386 58 -62 65 -65
141 -84 44 -11 145 -23 225 -28 160 -9 229 -28 337 -92 72 -43 194 -163 222
-218 31 -60 51 -66 152 -47 155 29 267 108 285 202 9 51 -9 65 -160 119 -71
26 -209 84 -305 130 -97 46 -232 102 -301 125 -69 23 -127 45 -130 48 -3 2 51
2 120 -2 290 -15 569 -109 733 -247 45 -38 52 -41 93 -36 116 13 202 123 212
270 5 88 -8 135 -50 177 -42 42 -87 63 -235 111 -256 83 -275 98 -312 247 -11
46 -30 104 -41 129 -23 51 -96 157 -132 191 l-25 22 23 -67 c26 -76 31 -128
12 -120 -215 93 -370 136 -793 217 -426 82 -698 292 -810 627 -19 54 -36 114
-40 133 -7 34 -6 34 59 -37 37 -39 101 -100 144 -134z m-531 -453 c182 -35
331 -49 493 -44 77 2 140 3 140 2 0 -1 -30 -21 -67 -46 -102 -68 -217 -163
-233 -193 -13 -24 -18 -26 -55 -21 -124 19 -246 85 -330 177 -58 64 -118 166
-92 156 9 -3 74 -17 144 -31z m1583 -391 c92 -22 165 -53 223 -96 69 -49 142
-149 109 -149 -4 0 -38 9 -75 19 -38 11 -105 27 -150 36 -112 22 -113 22 -124
48 -6 13 -34 53 -62 90 -28 38 -51 70 -51 73 0 6 56 -3 130 -21z m-1516 -344
l-146 -242 -18 33 c-27 52 -92 79 -200 86 -49 2 -90 8 -90 13 0 35 142 140
290 214 116 59 304 144 308 140 2 -1 -63 -111 -144 -244z m2424 -300 c-24 -26
-58 -75 -76 -107 l-31 -59 -1 46 c0 83 67 169 133 169 15 0 10 -10 -25 -49z
m-2633 -121 c-34 -130 -64 -410 -66 -615 l-1 -90 -12 50 c-38 153 -119 212
-210 150 -20 -13 -36 -23 -36 -21 0 1 11 34 24 72 31 91 103 233 162 320 43
64 146 193 151 190 1 -1 -4 -26 -12 -56z"/>
<path d="M11481 4961 c89 -63 141 -155 159 -277 6 -43 10 -513 10 -1231 l0
-1163 500 0 500 0 0 375 0 375 298 -1 297 0 394 -375 394 -374 624 0 c344 0
623 4 621 8 -2 4 -268 259 -593 566 -324 307 -591 562 -593 566 -1 3 235 204
525 446 290 241 536 447 548 456 19 16 1 17 -356 18 l-375 0 -525 -440 -524
-440 -367 0 -368 0 0 765 0 765 -612 0 -611 0 54 -39z"/>
<path d="M15530 4770 l0 -230 500 0 500 0 0 230 0 230 -500 0 -500 0 0 -230z"/>
<path d="M3910 4347 c0 -2 27 -25 60 -50 36 -29 71 -67 89 -99 61 -107 61
-101 61 -1047 l0 -861 505 0 505 0 0 815 0 815 970 0 970 0 0 215 0 215 -1580
0 c-869 0 -1580 -2 -1580 -3z"/>
<path d="M7450 4135 l0 -215 1254 -2 1255 -3 32 -30 c45 -42 59 -83 59 -170
l0 -75 -1115 0 c-1103 0 -1116 0 -1178 -21 -84 -28 -146 -69 -213 -142 -67
-72 -109 -156 -123 -247 -16 -99 -14 -461 4 -543 40 -192 213 -357 405 -387
42 -6 627 -10 1643 -10 l1577 0 0 824 c0 781 -1 827 -19 885 -53 171 -221 316
-396 341 -44 6 -653 10 -1627 10 l-1558 0 0 -215z m2600 -1170 l0 -256 -757 3
c-729 3 -759 4 -790 22 -68 42 -78 67 -81 215 -4 153 -2 168 35 212 51 60 19
58 841 59 l752 0 0 -255z"/>
<path d="M15330 4332 c113 -77 175 -184 190 -332 5 -53 10 -448 10 -902 l0
-808 500 0 500 0 0 1030 0 1030 -612 -1 c-580 0 -612 -1 -588 -17z"/>
<path d="M17485 4339 c-132 -19 -292 -133 -357 -255 -57 -106 -58 -115 -58
-764 0 -656 0 -661 62 -769 43 -74 130 -159 205 -199 121 -64 56 -62 1613 -62
944 0 1437 4 1480 11 175 28 336 172 390 347 19 61 20 94 20 671 0 529 -2 614
-16 662 -48 160 -161 281 -320 341 l-59 23 -1450 1 c-797 1 -1477 -2 -1510 -7z
m2275 -441 c18 -13 43 -36 54 -51 21 -28 21 -37 21 -527 0 -490 0 -499 -21
-527 -33 -44 -80 -71 -137 -78 -29 -3 -374 -5 -767 -3 -804 3 -753 -2 -808 80
l-27 42 0 485 0 486 23 37 c12 20 37 46 55 57 32 20 42 21 803 21 l771 0 33
-22z"/>
<path d="M21202 4307 c73 -59 113 -116 140 -195 l23 -67 3 -877 3 -878 499 0
500 0 0 815 0 815 764 0 763 0 33 -22 c18 -13 43 -36 54 -51 21 -28 21 -35 24
-793 l2 -764 500 0 500 0 0 813 c0 887 1 873 -58 980 -58 108 -168 201 -286
241 -61 21 -63 21 -1789 24 l-1728 2 53 -43z"/>
<path d="M17010 1785 c0 -3 59 -82 132 -175 l131 -170 198 -2 197 -3 -199
-519 c-109 -285 -199 -522 -199 -527 0 -6 122 -8 296 -7 l296 3 201 525 202
525 293 5 293 5 65 165 c35 91 64 168 64 173 0 4 -443 7 -985 7 -542 0 -985
-2 -985 -5z"/>
<path d="M19090 1785 c0 -3 37 -50 81 -105 l82 -100 -218 -568 c-120 -312
-225 -582 -232 -600 l-13 -32 867 2 867 3 63 165 c35 91 63 168 63 172 0 4
-253 9 -563 10 l-563 3 34 88 34 87 567 0 568 0 64 167 c35 91 66 170 67 175
2 4 -251 8 -563 8 -450 0 -566 3 -562 13 2 6 17 47 33 89 l28 78 569 2 568 3
65 165 c35 91 64 168 64 173 0 4 -443 7 -985 7 -542 0 -985 -2 -985 -5z"/>
<path d="M21160 1785 c0 -3 37 -50 81 -105 l82 -100 -218 -568 c-120 -312
-225 -582 -232 -600 l-13 -32 867 2 867 3 63 165 c35 91 63 168 63 172 0 4
-253 9 -563 10 l-564 3 136 352 136 353 568 2 568 3 65 165 c35 91 64 168 64
173 0 4 -443 7 -985 7 -542 0 -985 -2 -985 -5z"/>
<path d="M23230 1785 c0 -3 37 -50 81 -105 l82 -100 -230 -598 -230 -597 295
-3 c162 -1 297 -1 299 1 2 3 33 80 69 173 35 93 81 211 100 262 l36 92 314 0
c173 0 314 -2 314 -4 0 -3 -39 -105 -86 -228 -47 -123 -92 -240 -100 -260
l-13 -38 298 0 297 0 269 697 c147 384 270 701 272 706 2 4 -131 7 -295 7
l-299 0 -101 -262 -101 -263 -315 -3 c-174 -1 -316 -1 -316 2 0 3 174 456 197
514 4 9 -83 12 -416 12 -232 0 -421 -2 -421 -5z"/>
</g>
</svg>
